<?xml version="1.0" standalone="no"?><!DOCTYPE svg PUBLIC "-//W3C//DTD SVG 1.1//EN" "http://www.w3.org/Graphics/SVG/1.1/DTD/svg11.dtd"><svg class="icon" width="200px" height="200.00px" viewBox="0 0 1024 1024" version="1.1" xmlns="http://www.w3.org/2000/svg"><path fill="#333333" d="M899.819 309.265c0-45.575-36.949-82.524-82.524-82.524H212.048c-45.575 0-82.523 36.949-82.523 82.524v414.839c0 45.579 36.947 82.527 82.523 82.527h605.248c45.574 0 82.524-36.948 82.524-82.527v-414.84h-0.001z m-163.813 1.05c30.382 0 55.016 24.633 55.016 55.019 0 30.383-24.634 55.016-55.016 55.016-30.386 0-55.02-24.633-55.02-55.016 0-30.386 24.634-55.02 55.02-55.02z m55.016 436.432H240.857c-30.386 0-56.815-22.2-56.815-52.585v-25.115l196.095-255.869 0.453 0.16 0.365-0.21c2.468-2.846 38.212-42.524 74.925 0.075l134.778 156.281 48.29-56.808c6.801-7.581 35.001-34.585 64.737 0.899l133.322 209.513c-9.83 14.974-26.739 23.66-45.985 23.66z m0 0"  /></svg>