<?xml version="1.0" standalone="no"?><!DOCTYPE svg PUBLIC "-//W3C//DTD SVG 1.1//EN" "http://www.w3.org/Graphics/SVG/1.1/DTD/svg11.dtd"><svg class="icon" width="200px" height="200.00px" viewBox="0 0 1024 1024" version="1.1" xmlns="http://www.w3.org/2000/svg"><path fill="#333333" d="M512 136q8.992 0 12.992 8.992l104.992 222.016q3.008 7.008 11.008 8.992L876 411.008q8.992 2.016 12 10.496T884 436L712.992 612q-4.992 4.992-4 12l40.992 247.008q0.992 7.008-3.488 12T735.008 888q-4 0-7.008-2.016L519.008 770.976Q516 768.96 512 768.96t-7.008 2.016L296 885.984Q292.992 888 288.992 888q-7.008 0-11.488-4.992t-3.488-12L315.008 624q0.992-7.008-4-12L140 436q-7.008-6.016-4-14.496T148 412l235.008-36q8-0.992 11.008-8.992l104.992-222.016Q503.008 136 512 136z m0-72q-24 0-44.992 12.992-22.016 12.992-32.992 36.992l-92 195.008L137.024 340q-24 4-42.496 19.488t-26.496 39.008-2.496 47.008 22.496 41.504L239.04 641.024l-36 218.016q-6.016 40 20 70.496t66.016 30.496q22.016 0 42.016-11.008l180.992-100 180.992 100q20 11.008 42.016 11.008 40 0 66.016-30.496t20-70.496l-36-218.016 151.008-154.016q16.992-18.016 22.496-41.504t-2.496-47.008-26.496-39.008T887.104 340l-204.992-31.008-92-195.008q-11.008-24-32.992-36.992Q536.128 64 512.128 64z"  /></svg>