<?xml version="1.0" standalone="no"?><!DOCTYPE svg PUBLIC "-//W3C//DTD SVG 1.1//EN" "http://www.w3.org/Graphics/SVG/1.1/DTD/svg11.dtd"><svg class="icon" width="200px" height="200.00px" viewBox="0 0 1024 1024" version="1.1" xmlns="http://www.w3.org/2000/svg"><path fill="#333333" d="M895.937 303.608c0 26.52-21.498 48.018-48.018 48.018H175.453c-26.52 0-48.019-21.498-48.019-48.018v-0.155c0-26.52 21.499-48.018 48.019-48.018H847.92c26.52 0 48.018 21.498 48.018 48.018v0.155z m0 208.754c0 26.52-21.498 48.019-48.018 48.019H175.453c-26.52 0-48.019-21.499-48.019-48.019v-0.154c0-26.52 21.499-48.019 48.019-48.019H847.92c26.52 0 48.018 21.499 48.018 48.019v0.154z m0 207.731c0 26.52-21.498 48.02-48.018 48.02H175.453c-26.52 0-48.019-21.5-48.019-48.02v-0.154c0-26.52 21.499-48.019 48.019-48.019H847.92c26.52 0 48.018 21.499 48.018 48.019v0.154z"  /></svg>