<?xml version="1.0" standalone="no"?><!DOCTYPE svg PUBLIC "-//W3C//DTD SVG 1.1//EN" "http://www.w3.org/Graphics/SVG/1.1/DTD/svg11.dtd"><svg class="icon" width="200px" height="200.00px" viewBox="0 0 1024 1024" version="1.1" xmlns="http://www.w3.org/2000/svg"><path fill="#333333" d="M235.705 355.227a34.068 34.068 0 0 0 12.929-1.89s3.91-1.506 4.712-1.692c42.396-14.921 88.496-21.324 137.048-19.025 63.854 3.024 135.255 22.449 207.727 55.213a13.913 13.913 0 0 1 7.383 8.013 13.942 13.942 0 0 1-0.651 10.875s-33.314 68.075-33.371 68.186c-6.532 13.352-1.005 29.473 12.348 36.01 8.283 4.053 17.264 2.122 24.885 0.527 0 0 266.668-50.48 266.696-50.489 8.236-1.408 15.709-6.616 19.664-14.697 3.693-7.543 3.533-15.97 0.286-23.056L770.714 170.7c-2.532-5.798-6.93-11.41-13.286-14.518-13.352-6.533-29.474-1.006-36.01 12.348l-34.172 69.88a13.92 13.92 0 0 1-13.167 7.795 14.303 14.303 0 0 1-5.19-1.27c-3.473-1.59-86.21-38.95-188.913-43.813-49.634-2.349-96.012 3.255-137.86 16.65-50.447 16.157-94.872 43.904-132.048 82.482a34 34 0 0 0-6.97 19.124c-0.896 18.874 13.732 34.954 32.607 35.848z m555.933 316.201a34.08 34.08 0 0 0-12.928 1.891s-3.91 1.505-4.712 1.692c-42.396 14.925-88.495 21.324-137.048 19.025-63.855-3.02-135.255-22.448-207.727-55.214a13.916 13.916 0 0 1-6.733-18.889s33.314-68.074 33.371-68.186c6.533-13.352 1.006-29.473-12.348-36.009-8.28-4.053-17.263-2.121-24.885-0.527 0 0-266.668 50.479-266.695 50.488-8.237 1.408-15.71 6.617-19.664 14.7-3.694 7.542-3.533 15.97-0.287 23.056 0.004 0 124.647 252.5 124.647 252.5 2.534 5.798 6.932 11.404 13.286 14.517 13.353 6.533 29.474 1.006 36.01-12.346 0.187-0.386 34.172-69.881 34.172-69.881a13.924 13.924 0 0 1 13.168-7.795c1.775 0.084 3.573 0.536 5.19 1.271 3.472 1.59 86.21 38.951 188.914 43.814 49.632 2.346 96.01-3.255 137.858-16.652 50.448-16.156 94.872-43.902 132.048-82.482a33.994 33.994 0 0 0 6.972-19.123c0.895-18.874-13.733-34.956-32.61-35.85z m0 0"  /></svg>